<svg xmlns="http://www.w3.org/2000/svg" width="32" height="32" viewBox="0 0 32 32">
    <g fill="none" fill-rule="evenodd">
        <g fill="#666" fill-rule="nonzero">
            <g>
                <g>
                    <path d="M21.581 8.277c-.094-.015-.189-.022-.284-.02H5.098l.353-.165c.346-.163.66-.386.929-.657l4.542-4.543c.598-.57.699-1.49.238-2.176-.536-.732-1.564-.891-2.296-.355-.059.043-.115.09-.168.141L.482 8.716c-.642.642-.643 1.682-.001 2.324v.001l8.215 8.214c.643.64 1.683.64 2.323-.003.05-.05.098-.104.141-.161.461-.687.36-1.606-.238-2.177l-4.534-4.55c-.241-.242-.518-.444-.822-.6l-.492-.222h16.132c.84.031 1.576-.555 1.734-1.38.145-.896-.463-1.74-1.359-1.885z" transform="translate(-15 -43) translate(15 43) translate(5 6)"/>
                </g>
            </g>
        </g>
    </g>
</svg>
