<svg xmlns="http://www.w3.org/2000/svg" width="32" height="32" viewBox="0 0 32 32">
    <g fill="none" fill-rule="evenodd">
        <g fill="#666" fill-rule="nonzero">
            <g>
                <path d="M24.25 7.75h-.917V5.917c0-.506-.41-.917-.916-.917H21.5c-.506 0-.917.41-.917.917V7.75h-9.166V5.917c0-.506-.41-.917-.917-.917h-.917c-.506 0-.916.41-.916.917V7.75H7.75C6.234 7.75 5 8.984 5 10.5v13.75C5 25.766 6.234 27 7.75 27h16.5c1.516 0 2.75-1.234 2.75-2.75V10.5c0-1.516-1.234-2.75-2.75-2.75zm.917 16.5c0 .505-.412.917-.917.917H7.75c-.505 0-.917-.412-.917-.917V14.203h18.334V24.25z" transform="translate(-291 -43) translate(291 43)"/>
            </g>
        </g>
    </g>
</svg>
